HIERARCHY
ROOT Root
{
  OFFSET 0.0 0.0 0.0
  CHANNELS 6 Xposition Yposition Zposition Zrotation Yrotation Xrotation
  JOINT Hips
  {
    OFFSET 0.0 100.0 0.0
    CHANNELS 6 Xposition Yposition Zposition Zrotation Yrotation Xrotation
    JOINT Spine1
    {
      OFFSET -0.013727 5.003763 -0.053727
      CHANNELS 3 Zrotation Yrotation Xrotation
      JOINT Spine2
      {
        OFFSET -0.0 7.125301 -0.029825
        CHANNELS 3 Zrotation Yrotation Xrotation
        JOINT Chest
        {
          OFFSET -1e-06 7.550063 -0.815971
          CHANNELS 3 Zrotation Yrotation Xrotation
          JOINT Neck1
          {
            OFFSET -0.181677 26.311295 -0.553348
            CHANNELS 3 Zrotation Yrotation Xrotation
            JOINT Neck2
            {
              OFFSET -3e-06 7.709397 2.302585
              CHANNELS 3 Zrotation Yrotation Xrotation
              JOINT Head
              {
                OFFSET -5e-06 6.128916 1.953709
                CHANNELS 3 Zrotation Yrotation Xrotation
                JOINT HeadEnd
                {
                  OFFSET 0.003598 16.065403 -1.835379
                  CHANNELS 3 Zrotation Yrotation Xrotation
                }
                JOINT Jaw
                {
                  OFFSET 0.002637 0.475592 3.094941
                  CHANNELS 3 Zrotation Yrotation Xrotation
                }
                JOINT LeftEye
                {
                  OFFSET 3.206381 5.380205 7.586883
                  CHANNELS 3 Zrotation Yrotation Xrotation
                }
                JOINT RightEye
                {
                  OFFSET -3.22244 5.361869 7.558234
                  CHANNELS 3 Zrotation Yrotation Xrotation
                }
              }
            }
          }
          JOINT LeftShoulder
          {
            OFFSET 1.621652 23.237164 5.113413
            CHANNELS 3 Zrotation Yrotation Xrotation
            JOINT LeftArm
            {
              OFFSET 14.919846 2e-06 -5.502326
              CHANNELS 3 Zrotation Yrotation Xrotation
              JOINT LeftForeArm
              {
                OFFSET 28.739307 0.0 -0.002588
                CHANNELS 3 Zrotation Yrotation Xrotation
                JOINT LeftHand
                {
                  OFFSET 27.093981 -1e-06 0.002609
                  CHANNELS 3 Zrotation Yrotation Xrotation
                  JOINT LeftHandThumb1
                  {
                    OFFSET 2.276482 -1.392045 3.191413
                    CHANNELS 3 Zrotation Yrotation Xrotation
                    JOINT LeftHandThumb2
                    {
                      OFFSET 4.012836 -1.828127 1.641654
                      CHANNELS 3 Zrotation Yrotation Xrotation
                      JOINT LeftHandThumb3
                      {
                        OFFSET 2.798515 0.0 -3e-06
                        CHANNELS 3 Zrotation Yrotation Xrotation
                        JOINT LeftHandThumbEnd
                        {
                          OFFSET 3.180793 -4e-06 4e-06
                          CHANNELS 3 Zrotation Yrotation Xrotation
                        }
                      }
                    }
                  }
                  JOINT LeftHandIndex1
                  {
                    OFFSET 3.247555 -0.531998 2.296169
                    CHANNELS 3 Zrotation Yrotation Xrotation
                    JOINT LeftHandIndex2
                    {
                      OFFSET 6.364578 0.01206 0.1786
                      CHANNELS 3 Zrotation Yrotation Xrotation
                      JOINT LeftHandIndex3
                      {
                        OFFSET 3.662364 0.0 0.0
                        CHANNELS 3 Zrotation Yrotation Xrotation
                        JOINT LeftHandIndex4
                        {
                          OFFSET 2.329242 4e-06 4e-06
                          CHANNELS 3 Zrotation Yrotation Xrotation
                          JOINT LeftHandIndexEnd
                          {
                            OFFSET 2.759615 -0.180537 -0.113024
                            CHANNELS 3 Zrotation Yrotation Xrotation
                          }
                        }
                      }
                    }
                  }
                  JOINT LeftHandMiddle1
                  {
                    OFFSET 3.163495 0.240981 1.000332
                    CHANNELS 3 Zrotation Yrotation Xrotation
                    JOINT LeftHandMiddle2
                    {
                      OFFSET 6.19078 -0.259278 -1.002548
                      CHANNELS 3 Zrotation Yrotation Xrotation
                      JOINT LeftHandMiddle3
                      {
                        OFFSET 4.35652 -4e-06 -1e-06
                        CHANNELS 3 Zrotation Yrotation Xrotation
                        JOINT LeftHandMiddle4
                        {
                          OFFSET 2.996877 -8e-06 0.0
                          CHANNELS 3 Zrotation Yrotation Xrotation
                          JOINT LeftHandMiddleEnd
                          {
                            OFFSET 2.304287 -0.294569 -0.031741
                            CHANNELS 3 Zrotation Yrotation Xrotation
                          }
                        }
                      }
                    }
                  }
                  JOINT LeftHandRing1
                  {
                    OFFSET 2.882643 -0.053652 -0.322543
                    CHANNELS 3 Zrotation Yrotation Xrotation
                    JOINT LeftHandRing2
                    {
                      OFFSET 5.854541 -0.486202 -1.373841
                      CHANNELS 3 Zrotation Yrotation Xrotation
                      JOINT LeftHandRing3
                      {
                        OFFSET 4.350578 0.0 3e-06
                        CHANNELS 3 Zrotation Yrotation Xrotation
                        JOINT LeftHandRing4
                        {
                          OFFSET 2.651321 7e-06 2e-06
                          CHANNELS 3 Zrotation Yrotation Xrotation
                          JOINT LeftHandRingEnd
                          {
                            OFFSET 1.936105 0.077687 -7.1e-05
                            CHANNELS 3 Zrotation Yrotation Xrotation
                          }
                        }
                      }
                    }
                  }
                  JOINT LeftHandPinky1
                  {
                    OFFSET 2.8655 -0.310005 -1.600378
                    CHANNELS 3 Zrotation Yrotation Xrotation
                    JOINT LeftHandPinky2
                    {
                      OFFSET 5.087849 -1.331141 -1.77123
                      CHANNELS 3 Zrotation Yrotation Xrotation
                      JOINT LeftHandPinky3
                      {
                        OFFSET 3.070974 4e-06 0.0
                        CHANNELS 3 Zrotation Yrotation Xrotation
                        JOINT LeftHandPinky4
                        {
                          OFFSET 1.549672 0.0 1e-06
                          CHANNELS 3 Zrotation Yrotation Xrotation
                          JOINT LeftHandPinkyEnd
                          {
                            OFFSET 1.944893 -0.157802 0.057219
                            CHANNELS 3 Zrotation Yrotation Xrotation
                          }
                        }
                      }
                    }
                  }
                }
              }
            }
          }
          JOINT RightShoulder
          {
            OFFSET -1.380118 23.180309 5.214158
            CHANNELS 3 Zrotation Yrotation Xrotation
            JOINT RightArm
            {
              OFFSET -15.037196 1.2e-05 -5.545604
              CHANNELS 3 Zrotation Yrotation Xrotation
              JOINT RightForeArm
              {
                OFFSET -28.736639 2e-06 -0.002597
                CHANNELS 3 Zrotation Yrotation Xrotation
                JOINT RightHand
                {
                  OFFSET -27.133619 -0.0 0.002613
                  CHANNELS 3 Zrotation Yrotation Xrotation
                  JOINT RightHandThumb1
                  {
                    OFFSET -2.274032 -1.383988 3.163127
                    CHANNELS 3 Zrotation Yrotation Xrotation
                    JOINT RightHandThumb2
                    {
                      OFFSET -4.011429 -1.827466 1.640914
                      CHANNELS 3 Zrotation Yrotation Xrotation
                      JOINT RightHandThumb3
                      {
                        OFFSET -2.794935 -4e-06 -3e-06
                        CHANNELS 3 Zrotation Yrotation Xrotation
                        JOINT RightHandThumbEnd
                        {
                          OFFSET -3.183852 4e-06 1e-06
                          CHANNELS 3 Zrotation Yrotation Xrotation
                        }
                      }
                    }
                  }
                  JOINT RightHandIndex1
                  {
                    OFFSET -3.253266 -0.520057 2.282866
                    CHANNELS 3 Zrotation Yrotation Xrotation
                    JOINT RightHandIndex2
                    {
                      OFFSET -6.341917 0.012471 0.178266
                      CHANNELS 3 Zrotation Yrotation Xrotation
                      JOINT RightHandIndex3
                      {
                        OFFSET -3.654871 -8e-06 -0.0
                        CHANNELS 3 Zrotation Yrotation Xrotation
                        JOINT RightHandIndex4
                        {
                          OFFSET -2.327586 0.0 1e-06
                          CHANNELS 3 Zrotation Yrotation Xrotation
                          JOINT RightHandIndexEnd
                          {
                            OFFSET -2.76179 -0.180656 -0.113078
                            CHANNELS 3 Zrotation Yrotation Xrotation
                          }
                        }
                      }
                    }
                  }
                  JOINT RightHandMiddle1
                  {
                    OFFSET -3.168106 0.246593 1.00103
                    CHANNELS 3 Zrotation Yrotation Xrotation
                    JOINT RightHandMiddle2
                    {
                      OFFSET -6.180828 -0.258836 -1.000895
                      CHANNELS 3 Zrotation Yrotation Xrotation
                      JOINT RightHandMiddle3
                      {
                        OFFSET -4.348901 0.0 -0.0
                        CHANNELS 3 Zrotation Yrotation Xrotation
                        JOINT RightHandMiddle4
                        {
                          OFFSET -3.00024 -4e-06 -2e-06
                          CHANNELS 3 Zrotation Yrotation Xrotation
                          JOINT RightHandMiddleEnd
                          {
                            OFFSET -2.30252 -0.29437 -0.031706
                            CHANNELS 3 Zrotation Yrotation Xrotation
                          }
                        }
                      }
                    }
                  }
                  JOINT RightHandRing1
                  {
                    OFFSET -2.88569 -0.067952 -0.308858
                    CHANNELS 3 Zrotation Yrotation Xrotation
                    JOINT RightHandRing2
                    {
                      OFFSET -5.854198 -0.48613 -1.373731
                      CHANNELS 3 Zrotation Yrotation Xrotation
                      JOINT RightHandRing3
                      {
                        OFFSET -4.33881 -4e-06 -0.0
                        CHANNELS 3 Zrotation Yrotation Xrotation
                        JOINT RightHandRing4
                        {
                          OFFSET -2.654903 -4e-06 4e-06
                          CHANNELS 3 Zrotation Yrotation Xrotation
                          JOINT RightHandRingEnd
                          {
                            OFFSET -1.933568 0.077527 -5.2e-05
                            CHANNELS 3 Zrotation Yrotation Xrotation
                          }
                        }
                      }
                    }
                  }
                  JOINT RightHandPinky1
                  {
                    OFFSET -2.866425 -0.342796 -1.584145
                    CHANNELS 3 Zrotation Yrotation Xrotation
                    JOINT RightHandPinky2
                    {
                      OFFSET -5.091371 -1.332055 -1.772385
                      CHANNELS 3 Zrotation Yrotation Xrotation
                      JOINT RightHandPinky3
                      {
                        OFFSET -3.062664 -4e-06 1e-06
                        CHANNELS 3 Zrotation Yrotation Xrotation
                        JOINT RightHandPinky4
                        {
                          OFFSET -1.546529 4e-06 -2e-06
                          CHANNELS 3 Zrotation Yrotation Xrotation
                          JOINT RightHandPinkyEnd
                          {
                            OFFSET -1.945119 -0.157718 0.057211
                            CHANNELS 3 Zrotation Yrotation Xrotation
                          }
                        }
                      }
                    }
                  }
                }
              }
            }
          }
        }
      }
    }
    JOINT LeftLeg
    {
      OFFSET 10.043214 -8.434526 2.595655
      CHANNELS 3 Zrotation Yrotation Xrotation
      JOINT LeftShin
      {
        OFFSET -1e-06 -43.221752 -0.802913
        CHANNELS 3 Zrotation Yrotation Xrotation
        JOINT LeftFoot
        {
          OFFSET 1e-06 -42.155094 -3.481523
          CHANNELS 3 Zrotation Yrotation Xrotation
          JOINT LeftToeBase
          {
            OFFSET 0.0 -5.059472 13.231529
            CHANNELS 3 Zrotation Yrotation Xrotation
            JOINT LeftToeEnd
            {
              OFFSET -0.009607 -1.647619 6.513017
              CHANNELS 3 Zrotation Yrotation Xrotation
            }
          }
        }
      }
    }
    JOINT RightLeg
    {
      OFFSET -10.047278 -8.29526 2.620317
      CHANNELS 3 Zrotation Yrotation Xrotation
      JOINT RightShin
      {
        OFFSET 1e-06 -43.362206 -0.805556
        CHANNELS 3 Zrotation Yrotation Xrotation
        JOINT RightFoot
        {
          OFFSET 2e-06 -42.117393 -3.478398
          CHANNELS 3 Zrotation Yrotation Xrotation
          JOINT RightToeBase
          {
            OFFSET -0.0 -5.079609 13.284196
            CHANNELS 3 Zrotation Yrotation Xrotation
            JOINT RightToeEnd
            {
              OFFSET 0.009532 -1.634378 6.460591
              CHANNELS 3 Zrotation Yrotation Xrotation
            }
          }
        }
      }
    }
  }
}
MOTION
Frames: 4
Frame Time: 0.03333333333333333
0.0 0.0 0.0 0.0 -0.0 0.0 2.155298 99.326302 113.583336 -0.928707 -3.929771 -2.843758 1.260107 0.48291 -2.306736 -0.430319 0.2861 -5.681773 -1.353881 -1.755371 13.207013 1.301203 1.995926 5.226888 -1.508951 -2.46837 -3.39611 0.226568 -3.623652 -4.666553 7.7e-05 -2.2e-05 6e-06 -0.001998 -0.02484 -0.03017 0.739227 -3.7511 -10.596441 -0.74563 3.701238 -10.603241 -18.925268 -6.266273 14.290867 -58.530609 1.419457 6.662939 0.209587 -36.543007 0.165609 1.201081 10.892679 -19.421621 -5.882108 9.861284 0.702588 -10.936875 -0.360576 7.156205 1e-06 8.774824 -1e-06 -16.224356 17.980171 6.049426 -1.844034 2.498505 -2.507278 -10.163603 4.678944 4.621108 -20.97603 -6e-06 1e-06 -21.226294 2.451694 -3.594 0.0 -6e-06 -1e-06 -1.362682 2.240798 -0.746324 -21.334923 0.584908 3.00832 -13.82122 -5e-06 -0.0 -23.88718 -0.249082 -0.839484 -60.694244 2.319122 -1.209561 -0.294025 1.679688 0.833255 -14.218214 0.093213 1.300578 -34.212063 -0.287569 0.967168 -20.033218 0.964533 1.212844 -1e-06 -0.0 -0.0 -3.44039 0.788233 0.501655 -15.928191 -3.167312 2.999706 -6.338828 -2e-06 0.0 -18.123453 3.64818 -4.905674 -3e-06 0.0 -2e-06 16.31279 10.067486 14.220201 61.257488 6.358939 18.469194 0.312357 25.190351 0.172881 -3.16723 -0.105387 -23.219696 2.243544 -5.255039 -3.180158 14.2829 -0.826595 6.952501 -2e-06 -12.69061 -1e-06 16.544821 -17.993364 2.799711 1.665668 -1.955923 -2.878299 4.727801 -4.170589 4.993925 11.020535 3e-06 -2e-06 12.109058 -3.735717 -2.866786 1e-06 0.0 0.0 1.291987 -1.92855 -1.49809 14.800139 0.567469 3.865605 14.242584 -1.341736 -6.660662 19.631985 0.143927 -0.648247 50.474171 -0.535165 -5.942183 0.353029 -1.511152 -0.03194 20.222803 3.684313 2.316627 18.787287 7e-06 -5e-06 10.751637 -0.479868 1.397903 -1e-06 -0.0 1e-06 3.273809 0.305946 -0.580112 21.48683 11.830383 2.26613 8.162935 3e-06 -2e-06 18.399096 -3.798985 -4.94058 3e-06 1e-06 -1e-06 2.664067 6.761294 -10.875649 0.060251 0.13186 52.722458 -2.761846 10.793412 -4.713517 1.77727 -1.935239 -2.618545 -0.0 -0.0 1e-06 5.656655 4.656646 -3.757083 -0.048919 -0.225497 14.128987 -4.040918 -3.636665 -7.091 -1.442252 0.93169 2.013591 -0.0 -0.0 -1e-06 
0.0 0.0 0.0 0.0 -0.0 0.0 2.057528 99.473152 115.507599 -0.251125 -4.851593 -2.604055 1.175097 0.549048 -2.176903 -0.411248 0.708735 -5.600368 -1.677309 -1.310695 13.18272 0.432226 2.383533 4.983302 -1.493221 -2.424222 -3.411755 0.186453 -3.58885 -4.884937 7.7e-05 -2.2e-05 6e-06 0.000247 -0.046207 -0.029374 0.741168 -3.773237 -10.597073 -0.744891 3.680166 -10.605579 -19.128654 -6.036384 13.953374 -58.575237 1.374509 5.753321 0.266288 -37.250168 0.131212 1.493938 10.881085 -20.375099 -5.88211 9.86129 0.702591 -10.936877 -0.360574 7.156208 -0.0 8.774829 0.0 -16.123669 18.010803 6.092153 -1.844033 2.498505 -2.507279 -10.163605 4.678947 4.62111 -20.976038 -2e-06 2e-06 -21.226297 2.451699 -3.594002 1e-06 -6e-06 -0.0 -1.362682 2.240798 -0.746324 -21.334925 0.584911 3.008324 -13.821221 -2e-06 1e-06 -23.887182 -0.249078 -0.839484 -60.596481 2.313152 -1.207308 -0.294025 1.679689 0.833256 -14.218219 0.093215 1.30058 -34.212067 -0.287564 0.967169 -20.033226 0.964538 1.212842 0.0 -0.0 -1e-06 -3.440391 0.788233 0.501656 -15.928198 -3.16731 2.999708 -6.33883 -1e-06 1e-06 -18.123459 3.648184 -4.905674 -3e-06 0.0 -2e-06 15.615397 10.716972 14.103107 61.244202 7.515664 19.359324 0.231415 26.343267 0.105835 -3.677723 0.111504 -23.925997 2.243541 -5.255035 -3.180157 14.28289 -0.826594 6.952502 -3e-06 -12.690601 1e-06 16.496725 -17.875988 2.77398 1.665666 -1.955922 -2.878299 4.727798 -4.170585 4.993925 11.020523 4e-06 0.0 12.109049 -3.735713 -2.866783 -0.0 0.0 0.0 1.291985 -1.928549 -1.498088 14.800125 0.567468 3.865608 14.242569 -1.341735 -6.660655 19.631968 0.143926 -0.648243 50.27544 -0.562506 -5.926757 0.353029 -1.51115 -0.03194 20.222788 3.684309 2.31663 18.78727 5e-06 0.0 10.751626 -0.479869 1.397907 -0.0 -1e-06 0.0 3.273807 0.305948 -0.58011 21.486813 11.830373 2.266131 8.162926 3e-06 -1e-06 18.399078 -3.798985 -4.940573 3e-06 0.0 -2e-06 1.639288 5.157746 -13.291358 0.135476 0.217336 48.214314 -1.907408 11.52787 -5.087365 1.769353 -1.957187 -2.279604 0.0 0.0 3e-06 5.001423 5.168063 -2.271227 -0.042797 -0.176452 13.066089 -4.01896 -3.243383 -7.748754 -1.448203 0.924612 2.039675 -0.0 0.0 -1e-06 
0.0 0.0 0.0 0.0 -0.0 0.0 1.972106 99.528549 117.347481 0.411107 -5.69265 -2.295615 1.066588 0.573223 -2.099714 -0.394677 1.07613 -5.543319 -1.945387 -0.882529 13.214074 -0.464579 2.681883 4.70771 -1.431242 -2.30396 -3.443849 0.147957 -3.506859 -5.129062 7.7e-05 -2.3e-05 6e-06 0.002814 -0.039576 -0.030788 0.739868 -3.766015 -10.591766 -0.740237 3.686213 -10.603298 -19.452686 -5.924786 13.637049 -58.490032 1.181583 4.932919 0.323213 -37.629097 0.095789 1.895143 10.782938 -21.183943 -5.882113 9.861291 0.702591 -10.936883 -0.360574 7.15621 1e-06 8.774831 -1e-06 -16.045145 18.021639 6.095091 -1.844035 2.498507 -2.507279 -10.163611 4.678948 4.621111 -20.976049 -4e-06 1e-06 -21.226313 2.451698 -3.594002 0.0 -6e-06 -0.0 -1.362683 2.240799 -0.746324 -21.334938 0.58491 3.008323 -13.821231 -3e-06 1e-06 -23.887201 -0.24908 -0.839485 -60.465786 2.276486 -1.207806 -0.294025 1.679689 0.833256 -14.218224 0.093215 1.30058 -34.21209 -0.287565 0.967169 -20.033236 0.964536 1.212844 0.0 0.0 -0.0 -3.440393 0.788234 0.501656 -15.928206 -3.167311 2.999708 -6.338834 -1e-06 1e-06 -18.123466 3.648184 -4.905676 -2e-06 0.0 -2e-06 14.954266 11.330015 13.949959 61.236343 8.764269 20.161299 0.153759 27.372814 0.006283 -4.096033 0.26376 -24.00387 2.243543 -5.255037 -3.180158 14.282902 -0.826593 6.952504 -4e-06 -12.690609 1e-06 16.452244 -17.763884 2.738461 1.665667 -1.955921 -2.8783 4.727801 -4.170587 4.993925 11.020535 4e-06 -0.0 12.109058 -3.735714 -2.866784 2e-06 -0.0 -0.0 1.291986 -1.928549 -1.498089 14.800139 0.567469 3.865608 14.242582 -1.341734 -6.66066 19.631985 0.143928 -0.648245 50.12011 -0.562744 -5.907229 0.353029 -1.511152 -0.03194 20.222807 3.684314 2.31663 18.787287 7e-06 -0.0 10.751634 -0.479868 1.397907 0.0 -1e-06 1e-06 3.273809 0.305948 -0.580111 21.486832 11.830383 2.266133 8.162934 4e-06 -1e-06 18.399096 -3.798983 -4.940576 4e-06 1e-06 -2e-06 0.717317 3.727475 -15.462648 0.186151 0.241352 42.365692 -1.493804 11.460522 -5.027108 1.757352 -1.992896 -2.013125 -0.0 0.0 3e-06 4.309288 5.614984 -1.232138 -0.049729 -0.107516 12.559053 -3.990211 -2.898813 -8.630953 -1.449364 0.92889 2.145144 -0.0 -0.0 -1e-06 
0.0 0.0 0.0 0.0 -0.0 0.0 1.867981 99.52121 119.236115 0.934702 -6.34889 -1.989594 0.974683 0.525871 -2.061835 -0.3837 1.346272 -5.5268 -2.150935 -0.522141 13.317879 -1.217141 2.872205 4.500645 -1.367343 -2.118859 -3.47756 0.125637 -3.394388 -5.356015 7.7e-05 -2.3e-05 6e-06 0.006593 -0.006207 -0.034593 0.739903 -3.730234 -10.589017 -0.734125 3.717462 -10.603764 -19.705772 -5.855279 13.390159 -58.373489 0.919499 4.399003 0.420732 -37.798203 0.070219 2.265896 10.672045 -21.76227 -5.88211 9.86129 0.70259 -10.936878 -0.360575 7.156207 1e-06 8.774828 -1e-06 -15.996546 17.997564 6.078659 -1.844034 2.498506 -2.507279 -10.163606 4.678946 4.621109 -20.976038 -3e-06 1e-06 -21.226301 2.451697 -3.594003 1e-06 -6e-06 -0.0 -1.362683 2.240799 -0.746324 -21.334929 0.584909 3.008322 -13.821221 -2e-06 1e-06 -23.887184 -0.249079 -0.839485 -60.387711 2.20997 -1.194546 -0.294025 1.679688 0.833256 -14.218219 0.093215 1.300579 -34.212074 -0.287565 0.967169 -20.033226 0.964536 1.212843 0.0 0.0 -1e-06 -3.440391 0.788234 0.501655 -15.928198 -3.167311 2.999707 -6.33883 -1e-06 0.0 -18.123457 3.648184 -4.905674 -2e-06 1e-06 -2e-06 14.35329 11.86768 13.773115 61.315926 9.912101 20.665394 0.126452 28.340149 -0.06018 -4.478872 0.453754 -23.727514 2.243543 -5.255037 -3.180158 14.282892 -0.826594 6.952501 -2e-06 -12.690605 1e-06 16.423702 -17.69656 2.697932 1.665667 -1.955921 -2.878299 4.727798 -4.170588 4.993924 11.020528 3e-06 -3e-06 12.109055 -3.735715 -2.866786 2e-06 -0.0 0.0 1.291986 -1.928549 -1.498089 14.800129 0.567467 3.865605 14.242576 -1.341736 -6.660661 19.631969 0.143928 -0.648246 50.037804 -0.548178 -5.9142 0.353029 -1.511152 -0.03194 20.222794 3.68431 2.316626 18.787277 7e-06 -2e-06 10.751629 -0.479868 1.397904 0.0 0.0 1e-06 3.273807 0.305949 -0.580112 21.486818 11.830376 2.26613 8.16293 2e-06 -1e-06 18.399084 -3.798983 -4.940577 4e-06 1e-06 -2e-06 -0.015158 2.790622 -17.210642 0.210295 0.214838 35.526272 -1.252296 10.930661 -4.179917 1.736865 -2.036584 -1.850674 0.0 0.0 2e-06 3.807163 5.898135 -0.039304 -0.06859 -0.030945 11.973085 -4.047019 -2.631015 -9.525403 -1.446785 0.948043 2.259216 -0.0 0.0 -1e-06 
